<?xml version="1.0" encoding="utf-8"?>
<!-- Generator: Adobe Illustrator 24.0.1, SVG Export Plug-In . SVG Version: 6.00 Build 0)  -->
<svg version="1.1" id="Icon_x5F_contour" xmlns="http://www.w3.org/2000/svg" xmlns:xlink="http://www.w3.org/1999/xlink" x="0px"
	 y="0px" viewBox="0 0 192 192" style="enable-background:new 0 0 192 192;" xml:space="preserve">
<path d="M176,136V32H16v104h64v16H64v8h64v-8h-16v-16H176z M104,152H88v-16h16V152z M24,128V40h144v88H24z M127.12354,61.50098
	L145.12256,84l-17.99902,22.49902l-6.24707-4.99805L134.87744,84l-14.00098-17.50098L127.12354,61.50098z M71.12354,66.49902
	L57.12256,84l14.00098,17.50098l-6.24707,4.99805L46.87744,84l17.99902-22.49902L71.12354,66.49902z M100.28613,62.51465
	l7.42773,2.9707l-16,40l-7.42773-2.9707L100.28613,62.51465z"/>
<g>
</g>
<g>
</g>
<g>
</g>
<g>
</g>
<g>
</g>
<g>
</g>
<g>
</g>
<g>
</g>
<g>
</g>
<g>
</g>
<g>
</g>
<g>
</g>
<g>
</g>
<g>
</g>
<g>
</g>
</svg>
